<svg xmlns="http://www.w3.org/2000/svg" viewBox="640 420 680 250" class="text-black-300 dark:text-white" height="36"><rect class="cls-2" fill="none" stroke="#1279be" stroke-miterlimit="10" stroke-width="10.91" x="643.82" y="424.38" width="231.24" height="231.24" rx="29.94" ry="29.94"></rect><path fill="#1279be" d="M778.47 539.99c0 10.5-8.51 19-19 19s-19-8.5-19-18.99c0-5.15 2.04-9.81 5.37-13.22 3.45-3.57 8.29-5.78 13.64-5.78s10.18 2.21 13.64 5.78c3.32 3.42 5.37 8.07 5.37 13.21Z"></path><path d="m825.8 492.99-21.54 21.54a51.5 51.5 0 0 0-8.37-10.96 51.3 51.3 0 0 0-10.96-8.37l21.54-21.54a80.6 80.6 0 0 1 10.47 8.85c3.3 3.3 6.25 6.8 8.85 10.47Zm-52.68-2.66a51.7 51.7 0 0 0-14.46-1.82c-4.34.07-8.66.67-12.86 1.83v-30.47c4.44-.77 9-1.15 13.66-1.15s9.23.39 13.67 1.15v30.47Zm66.46 63.33h-30.43c1.15-4.19 1.74-8.52 1.81-12.85.08-4.87-.53-9.75-1.83-14.48h30.44c.76 4.44 1.14 9.01 1.14 13.67s-.39 9.22-1.14 13.66ZM734 495.2a51.4 51.4 0 0 0-11.51 8.94 52 52 0 0 0-7.81 10.39l-21.55-21.55a80 80 0 0 1 8.85-10.47 81 81 0 0 1 10.47-8.85L734 495.21Zm-24.22 31.14c-1.29 4.73-1.9 9.6-1.82 14.47.07 4.34.67 8.66 1.83 12.86h-30.47c-.77-4.44-1.15-9-1.15-13.66s.39-9.23 1.15-13.67h30.47Z" fill="#fbb216"></path><path fill="#1279be" d="m837.4 617.54-4.15-.24-45.74-1.28-8.09 2.8c-6.44 1.65-13.01 2.47-19.96 2.47-5.64 0-11.15-.58-16.47-1.67-14.23-2.93-27.09-9.56-37.55-18.87-.08-.08-.18-.16-.26-.24a80.5 80.5 0 0 1-9.18-9.69 83 83 0 0 1-7.66-11.39l.03-.03c-.53-.96-1.04-1.94-1.54-2.92l24.54-18.06c1.76 4.57 4.17 8.86 7.11 12.72 2.63 3.46 5.66 6.57 9.07 9.29.54.43 1.07.85 1.65 1.27a51.3 51.3 0 0 0 30.25 9.82c12.21 0 23.42-4.25 32.25-11.34l-.02-.02c3.81-3.08 7.18-6.65 9.95-10.65 2.48-3.56 4.53-7.4 6.07-11.49l.03.03 24.66 17.83a81 81 0 0 1-7.08 11.74 76 76 0 0 1-3.09 4.02c-.06.08-.13.16-.19.24-.29.35-.59.7-.9 1.06a79 79 0 0 1-4.76 5.08c-.06.06-.13.14-.21.21l21.23 19.31Zm137.18-131.4q4.35 5.37 4.35 13.56c0 8.19-1.47 10.34-4.42 14.13-2.95 3.78-6.88 6.58-11.8 8.39s-10.37 2.71-16.34 2.71h-37.6v-88.32h37.98c9 0 16.02 1.94 21.07 5.8 5.05 3.87 7.57 9.34 7.57 16.4 0 4.79-1.14 8.85-3.41 12.17s-5.59 5.78-9.97 7.38c5.47 1.6 9.65 4.19 12.55 7.76Zm-17.41 21.26c2.48-2.19 3.72-5.17 3.72-8.96s-1.24-6.64-3.72-8.83-5.91-3.28-10.28-3.28h-21.32v24.35h21.32c4.37 0 7.8-1.09 10.28-3.28m-11.04-34.19c3.28 0 6.01-1.11 8.2-3.34s3.28-4.86 3.28-7.89-1.09-5.63-3.28-7.82-4.92-3.28-8.2-3.28h-20.44v22.21l20.44.13Zm87.81-12.11-.13 15.65c-3.87-.17-6.73-.25-8.58-.25-5.22 0-9.19 1.43-11.92 4.29s-4.1 7.11-4.1 12.74v31.42h-16.4v-63.08h16.02v10.85c1.77-3.78 4.37-6.79 7.82-9.02s7.32-3.34 11.61-3.34c2.02 0 3.91.25 5.68.76Zm12.68-13.63c-1.98-1.93-2.96-4.29-2.96-7.07s.99-5.02 2.96-7c1.98-1.98 4.35-2.97 7.13-2.97s5 .99 6.94 2.97c1.93 1.98 2.9 4.31 2.9 7s-.97 5.13-2.9 7.07c-1.94 1.94-4.25 2.9-6.94 2.9s-5.15-.97-7.13-2.9m15.33 14.39v63.08h-16.4v-63.08zm76.9 74.12c-2.9 5.09-6.98 9.04-12.24 11.86s-11.25 4.23-17.98 4.23c-6.23 0-12.09-1.09-17.6-3.28s-9.9-5.09-13.18-8.71l7.32-11.61c2.78 2.78 6.16 5 10.16 6.69q5.985 2.52 12.18 2.52c5.72 0 10.49-1.7 14.32-5.11s5.74-8.6 5.74-15.58v-5.68c-1.77 3.87-4.42 6.98-7.95 9.34s-7.82 3.53-12.87 3.53c-6.39 0-11.92-1.37-16.59-4.1s-8.24-6.56-10.72-11.48q-3.72-7.38-3.72-17.1c0-6.14 1.16-11.56 3.47-16.28 2.31-4.71 5.68-8.37 10.09-10.98 4.42-2.61 9.69-3.91 15.83-3.91 4.79 0 8.85.78 12.17 2.33 3.32 1.56 5.85 3.32 7.57 5.3s2.88 3.68 3.47 5.11v-11.36h14.89v56.78c0 6.56-1.45 12.38-4.35 17.47Zm-16.84-30.16c3.36-3.32 5.04-7.67 5.04-13.06 0-6.06-1.7-10.62-5.11-13.69s-7.46-4.61-12.17-4.61c-5.22 0-9.42 1.68-12.62 5.05-3.2 3.36-4.79 7.78-4.79 13.25s1.53 9.63 4.6 12.99c3.07 3.37 7.17 5.05 12.3 5.05s9.38-1.66 12.74-4.98ZM1209 463.5c3.49 1.94 6.2 4.61 8.14 8.01 1.93 3.41 2.9 7.3 2.9 11.67v41.76h-16.4v-37.6c0-3.87-1.22-7.07-3.66-9.59q-3.66-3.78-9.21-3.78c-4.04 0-7.36 1.37-9.97 4.1s-3.91 6.2-3.91 10.41v36.46h-16.4v-88.32h16.4v33.56c1.51-2.86 4.12-5.17 7.82-6.94s7.86-2.65 12.49-2.65c4.37 0 8.31.97 11.8 2.9Zm37.22 57.09c-2.9-2.9-4.35-6.45-4.35-10.66v-33.56h-11.99v-14.51h11.99v-20.19h16.53v20.19h17.66v14.51h-17.66v32.17c0 1.09.55 1.64 1.64 1.64h16.15v14.76h-19.43q-6.18 0-10.53-4.35Z"></path><path fill="currentColor" d="M972.76 647.27c-6.14 2.4-13.21 3.6-21.2 3.6-8.83-.09-16.61-2.12-23.34-6.12-6.73-3.99-11.92-9.42-15.58-16.28q-5.49-10.275-5.49-23.28c0-13.005 1.87-16.46 5.61-23.4s8.98-12.41 15.71-16.4 14.42-5.99 23.09-5.99 15.88 1.89 22.39 5.68c6.52 3.78 11.54 9.08 15.08 15.9l-6.06 3.79c-2.86-5.97-6.98-10.56-12.36-13.75-5.38-3.2-11.73-4.79-19.05-4.79s-13.54 1.68-19.18 5.05c-5.64 3.36-10.01 8.01-13.12 13.94s-4.67 12.6-4.67 20 1.53 14.03 4.61 19.87c3.07 5.85 7.4 10.45 13 13.82 5.59 3.37 12.05 5.13 19.37 5.3 6.56 0 12.36-.84 17.41-2.52s9.71-4.5 14-8.45v-22.96h-24.73v-6.18h31.42v32.05c-5.13 5.05-10.77 8.77-16.91 11.17Zm79.86-12.43c-1.51 4.88-4.4 8.69-8.64 11.42-4.25 2.73-9.48 4.1-15.71 4.1-6.98 0-12.41-1.72-16.28-5.17s-5.8-8.07-5.8-13.88c0-6.48 2.69-11.37 8.07-14.7 5.38-3.32 13-4.98 22.84-4.98q6.81 0 14.76 1.14v-5.93c0-5.47-1.56-9.59-4.67-12.36-3.11-2.78-7.4-4.16-12.87-4.16-4.37 0-8.29.86-11.73 2.59-3.45 1.73-6.27 4.27-8.45 7.63l-4.16-3.78c2.78-3.95 6.31-6.96 10.6-9.02s9.04-3.09 14.26-3.09c7.4 0 13.23 2.06 17.47 6.18 4.25 4.12 6.37 9.76 6.37 16.91v41.51h-6.06v-14.38Zm-14.76-18.55c-7.74 0-13.8 1.24-18.17 3.72s-6.56 6.12-6.56 10.91q0 6.69 4.29 10.41t12.24 3.72c6.81 0 12.24-1.98 16.28-5.93s6.06-9.38 6.06-16.28v-5.43q-7.695-1.14-14.13-1.14Zm81.63 32.93h-48.95v-4.67l39.49-52.86h-38.35v-5.93h47.31v4.67l-39.49 52.74h39.99v6.06Zm58.41-14.38c-1.51 4.88-4.4 8.69-8.64 11.42-4.25 2.73-9.48 4.1-15.71 4.1-6.98 0-12.41-1.72-16.28-5.17s-5.8-8.07-5.8-13.88c0-6.48 2.69-11.37 8.07-14.7 5.38-3.32 12.99-4.98 22.84-4.98q6.81 0 14.76 1.14v-5.93c0-5.47-1.56-9.59-4.67-12.36-3.11-2.78-7.4-4.16-12.87-4.16-4.37 0-8.29.86-11.73 2.59-3.45 1.73-6.27 4.27-8.45 7.63l-4.16-3.78c2.78-3.95 6.31-6.96 10.6-9.02s9.04-3.09 14.26-3.09c7.4 0 13.22 2.06 17.47 6.18s6.37 9.76 6.37 16.91v41.51h-6.06v-14.38Zm-14.76-18.55c-7.74 0-13.8 1.24-18.17 3.72s-6.56 6.12-6.56 10.91q0 6.69 4.29 10.41t12.24 3.72c6.81 0 12.24-1.98 16.28-5.93s6.06-9.38 6.06-16.28v-5.43q-7.695-1.14-14.13-1.14Z"></path><path fill="#fbb216" d="M1229.69 637.51c0 7.38-5.98 13.36-13.36 13.36s-13.36-5.98-13.36-13.35c0-3.62 1.44-6.89 3.77-9.29 2.43-2.51 5.83-4.06 9.59-4.06s7.16 1.55 9.59 4.06c2.33 2.4 3.77 5.67 3.77 9.29Z"></path></svg>
