<svg xmlns="http://www.w3.org/2000/svg" fill="none" viewBox="0 0 204 118">
    <path
        d="M152.642 45.3069V38.164H164.805C168.011 38.164 169.614 39.3545 169.614 41.7354C169.614 44.1164 168.011 45.3069 164.805 45.3069H152.642Z"
    />
    <path fill-rule="evenodd" clip-rule="evenodd"
        d="M204 0.549805H0V77.4497L102 117.45L204 77.4497V0.549805ZM74.1584 22.4497H19V38.164H37.3861V72.4497H55.7723V38.164H74.1584V22.4497ZM78.3875 22.4497H129.303V38.164H96.7737V43.164H128.596V58.8783H96.7737V72.4497H78.3875V22.4497ZM152.642 72.4497V61.0211H164.169C171.947 61.0211 177.888 59.3069 181.989 55.8783C185.996 52.5926 188 47.8783 188 41.7354C188 35.5926 185.996 30.8783 181.989 27.5926C177.888 24.164 171.947 22.4497 164.169 22.4497H134.256V72.4497H152.642Z"
    />
    <style>
        path { fill: #1a1a1a; }
        @media (prefers-color-scheme: dark) {
        path { fill: #FFF; }
        }
    </style>
</svg>