<?xml version="1.0" encoding="UTF-8"?>
<svg id="Capa_2" data-name="Capa 2" xmlns="http://www.w3.org/2000/svg" xmlns:xlink="http://www.w3.org/1999/xlink" viewBox="0 0 124.44 206.98">
  <defs>
    <style>
      .cls-1 {
        fill: #e52c4b;
      }

      .cls-2 {
        fill: #719d5a;
      }

      .cls-3 {
        fill: url(#Degradado_sin_nombre_15);
      }

      .cls-4 {
        fill: url(#Degradado_sin_nombre_12);
      }

      .cls-5 {
        fill: url(#Degradado_sin_nombre_21);
      }
    </style>
    <linearGradient id="Degradado_sin_nombre_21" data-name="Degradado sin nombre 21" x1="62.22" y1="0" x2="62.22" y2="187.85" gradientUnits="userSpaceOnUse">
      <stop offset="0" stop-color="#70a63b"/>
      <stop offset="1" stop-color="#326535"/>
    </linearGradient>
    <radialGradient id="Degradado_sin_nombre_15" data-name="Degradado sin nombre 15" cx="3211.99" cy="-723.99" fx="3254.29" fy="-854.54" r="137.23" gradientTransform="translate(1440.13 -747.36) rotate(163.82) scale(.48 .58)" gradientUnits="userSpaceOnUse">
      <stop offset="0" stop-color="#70a63b"/>
      <stop offset="1" stop-color="#326535"/>
    </radialGradient>
    <radialGradient id="Degradado_sin_nombre_12" data-name="Degradado sin nombre 12" cx="3211.99" cy="-752.55" fx="3211.99" fy="-752.55" r="60.3" gradientTransform="translate(-1494.8 442.09) scale(.48)" gradientUnits="userSpaceOnUse">
      <stop offset="0" stop-color="#fce4e8"/>
      <stop offset="1" stop-color="#e52c4b"/>
    </radialGradient>
  </defs>
  <g id="Capa_1-2" data-name="Capa 1">
    <g>
      <path d="M113.22,161.8c-6.28-2.09-14.7-3.14-25.26-3.14s-21.63,1.06-32.35,3.19c-10.73,2.13-20.45,4.99-29.18,8.61-8.73,3.61-15.51,7.67-20.33,12.18-4.89,4.57-6.85,8.69-5.85,12.37.99,3.68,4.55,6.6,10.69,8.75,6.14,2.16,14.56,3.23,25.26,3.23s21.43-1.08,32.19-3.23c10.76-2.15,20.55-5.06,29.39-8.7,8.83-3.65,15.73-7.78,20.69-12.41,4.82-4.5,6.72-8.58,5.7-12.22-1.02-3.65-4.67-6.52-10.95-8.61ZM85.21,182.72c-2.31,2.16-5.32,4.08-9.02,5.75-3.7,1.68-7.79,2.96-12.26,3.85-4.47.89-8.96,1.33-13.47,1.33s-8.05-.44-10.61-1.33c-2.57-.89-3.94-2.17-4.11-3.85-.17-1.68.9-3.6,3.21-5.75,2.17-2.03,5.13-3.87,8.87-5.52,3.74-1.65,7.86-2.93,12.36-3.85,4.5-.92,9.01-1.38,13.52-1.38s7.99.46,10.46,1.38c2.46.92,3.81,2.19,4.06,3.8.24,1.62-.76,3.47-3,5.56Z"/>
      <path class="cls-5" d="M62.22,0c-1.02,0-2.07.03-3.1.08-15.41.75-29.94,7.23-40.93,18.25C7.21,29.34.77,43.89.07,59.31c-.37,8.01.77,15.86,3.37,23.33,1.14,3.33,2.67,6.56,4.66,9.89l3.3,5.5,50.81,84.85,54.13-90.35c1.96-3.28,3.53-6.61,4.66-9.88,2.28-6.55,3.44-13.42,3.44-20.42C124.44,27.91,96.53,0,62.22,0ZM116.62,81.11c-1.02,2.98-2.46,6.03-4.25,9.03l-3.27,5.46-46.87,78.24L15.39,95.64l-3.3-5.51c-1.83-3.05-3.22-5.99-4.25-9.01-2.42-6.93-3.46-14.2-3.12-21.61.65-14.26,6.61-27.72,16.78-37.92C31.65,11.4,45.09,5.41,59.35,4.71c.96-.05,1.92-.07,2.87-.07,31.75,0,57.58,25.83,57.58,57.58,0,6.48-1.07,12.83-3.18,18.89Z"/>
      <path class="cls-2" d="M62.22,4.64c-.95,0-1.91.02-2.87.07-14.25.7-27.7,6.69-37.87,16.89C11.31,31.8,5.36,45.26,4.7,59.52c-.34,7.41.71,14.68,3.12,21.61,1.03,3.01,2.42,5.96,4.25,9.01l3.3,5.51,46.84,78.2,46.87-78.24,3.27-5.46c1.8-3,3.23-6.04,4.25-9.03,2.11-6.06,3.18-12.41,3.18-18.89,0-31.75-25.83-57.58-57.58-57.58ZM112.24,83.68c-.93,2.71-2.22,5.45-3.85,8.17l-3.27,5.46-42.89,71.6L19.37,97.35l-3.31-5.51c-1.66-2.77-2.92-5.42-3.84-8.12v-.04c-2.23-6.35-3.19-13.03-2.88-19.85.6-13.1,6.08-25.48,15.43-34.86,9.35-9.38,21.71-14.89,34.81-15.53.88-.04,1.77-.06,2.65-.06,29.19,0,52.94,23.75,52.94,52.94,0,5.96-.98,11.8-2.92,17.37Z"/>
      <path class="cls-3" d="M62.22,13.37c-.88,0-1.77.02-2.65.06-13.1.64-25.46,6.16-34.81,15.53-9.35,9.38-14.83,21.76-15.43,34.86-.31,6.82.65,13.5,2.87,19.85v.04c.94,2.7,2.2,5.36,3.86,8.12l3.31,5.51,42.86,71.56,42.89-71.6,3.27-5.46c1.63-2.72,2.92-5.46,3.85-8.17,1.94-5.57,2.92-11.41,2.92-17.37,0-29.19-23.75-52.94-52.94-52.94ZM107.86,86.24s-.01.04-.02.06c-.87,2.53-2.05,4.95-3.43,7.25l-3.27,5.46-38.91,64.96L23.35,99.06l-3.31-5.51c-1.38-2.3-2.57-4.72-3.44-7.25,0-.02-.01-.03-.02-.05-1.96-5.64-2.9-11.75-2.61-18.12,1.13-24.7,21.14-44.76,45.83-45.97,27.78-1.36,50.72,20.77,50.72,48.24,0,5.55-.93,10.88-2.66,15.84Z"/>
      <path class="cls-1" d="M59.8,22.16c-24.69,1.21-44.7,21.27-45.83,45.97-.29,6.37.65,12.48,2.61,18.12,0,.02.01.03.02.05.87,2.54,2.06,4.95,3.44,7.25l3.31,5.51,38.88,64.91,38.91-64.96,3.27-5.46c1.38-2.3,2.56-4.71,3.43-7.25,0-.02.01-.04.02-.06,1.73-4.96,2.66-10.29,2.66-15.84,0-27.48-22.95-49.6-50.72-48.24ZM51.85,113.06s0,0,0,0c-.1.3-.24.58-.4.85l-.39.64-4.59,7.66-4.58-7.65-.39-.65c-.16-.27-.3-.56-.4-.85,0,0,0,0,0,0-.23-.66-.34-1.38-.31-2.14.13-2.91,2.49-5.28,5.4-5.42,3.27-.16,5.98,2.45,5.98,5.69,0,.65-.11,1.28-.31,1.87ZM67.6,134.65s0,0,0,0c-.1.3-.24.58-.4.85l-.39.64-4.59,7.66-4.58-7.65-.39-.65c-.16-.27-.3-.56-.4-.85,0,0,0,0,0,0-.23-.66-.34-1.38-.31-2.14.13-2.91,2.49-5.28,5.4-5.42,3.27-.16,5.98,2.45,5.98,5.69,0,.65-.11,1.28-.31,1.87ZM82.13,113.06s0,0,0,0c-.1.3-.24.58-.4.85l-.39.64-4.59,7.66-4.58-7.65-.39-.65c-.16-.27-.3-.56-.4-.85,0,0,0,0,0,0-.23-.66-.34-1.38-.31-2.14.13-2.91,2.49-5.28,5.4-5.42,3.27-.16,5.98,2.45,5.98,5.69,0,.65-.11,1.28-.31,1.87ZM84.21,73.95l-.02.06c-.42,1.22-1,2.46-1.73,3.67l-20.24,33.79-18.96-31.66-1.27-2.12c-.72-1.2-1.3-2.41-1.71-3.61l-.02-.06-.02-.07c-.96-2.77-1.37-5.68-1.24-8.65.54-11.84,10.24-21.56,22.07-22.14.39-.02.78-.03,1.16-.03,12.82,0,23.26,10.43,23.26,23.26,0,2.6-.43,5.14-1.27,7.57Z"/>
      <path class="cls-4" d="M62.22,43.12c-.38,0-.77,0-1.16.03-11.83.58-21.53,10.3-22.07,22.14-.14,2.97.28,5.88,1.24,8.65l.02.07.02.06c.42,1.2.99,2.41,1.71,3.61l1.27,2.12,18.96,31.66,20.24-33.79c.73-1.22,1.31-2.45,1.73-3.67l.02-.06c.84-2.43,1.27-4.98,1.27-7.57,0-12.82-10.43-23.26-23.26-23.26ZM79.81,76.57s0,.02,0,.02c-.33.98-.79,1.91-1.32,2.79l-1.26,2.1-15,25.04-14.98-25.02-1.28-2.13c-.53-.89-.99-1.82-1.32-2.8,0,0,0-.01,0-.02-.76-2.17-1.12-4.53-1.01-6.98.44-9.52,8.15-17.25,17.67-17.72,10.71-.52,19.55,8,19.55,18.6,0,2.14-.36,4.19-1.03,6.1Z"/>
      <path d="M71.37,113.07c.1.3.24.58.4.85l.39.65,4.58,7.65,4.59-7.66.39-.64c.16-.27.3-.56.4-.85,0,0,0,0,0,0,.2-.58.31-1.21.31-1.87,0-3.24-2.7-5.85-5.98-5.69-2.91.14-5.27,2.51-5.4,5.42-.03.75.08,1.47.31,2.14,0,0,0,0,0,0Z"/>
      <path d="M41.09,113.07c.1.3.24.58.41.85l.39.65,4.58,7.65,4.59-7.66.39-.64c.16-.27.3-.56.4-.85,0,0,0,0,0,0,.2-.58.31-1.21.31-1.87,0-3.24-2.7-5.85-5.98-5.69-2.91.14-5.27,2.51-5.4,5.42-.03.75.08,1.47.31,2.14,0,0,0,0,0,0Z"/>
      <path d="M56.84,134.65c.1.3.24.58.41.85l.39.65,4.58,7.65,4.59-7.66.39-.64c.16-.27.3-.56.4-.85,0,0,0,0,0,0,.2-.58.31-1.21.31-1.87,0-3.24-2.71-5.85-5.98-5.69-2.91.14-5.27,2.51-5.4,5.42-.03.75.08,1.47.31,2.14,0,0,0,0,0,0Z"/>
    </g>
  </g>
</svg>