<?xml version="1.0" encoding="utf-8"?>
<!-- Generator: Adobe Illustrator 25.4.1, SVG Export Plug-In . SVG Version: 6.00 Build 0)  -->
<svg version="1.1" id="Layer_1" xmlns="http://www.w3.org/2000/svg" xmlns:xlink="http://www.w3.org/1999/xlink" x="0px" y="0px"
	 viewBox="0 0 1200 382.57" style="enable-background:new 0 0 1200 382.57;" xml:space="preserve">
<style type="text/css">
	.st0{fill:url(#SVGID_1_);}
	.st1{fill:#2E3531;}
	.st2{fill:#F9AF42;}
	.st3{fill:url(#SVGID_00000144318714346848575420000001212741150915644302_);}
	.st4{fill:#FFFFFF;}
	.st5{fill:url(#SVGID_00000111153712528195628700000001375338280675951768_);}
	.st6{fill:url(#SVGID_00000014614037184491205120000009667694682643531409_);}
</style>
<g>
	<g>
		<g>
			<path class="st1" d="M102.94,175.59c0.56,0.56,1.21,1.01,1.96,1.33c0.74,0.32,1.54,0.48,2.41,0.48c0.87,0,1.67-0.16,2.42-0.48
				c0.74-0.32,1.39-0.76,1.95-1.33c0.56-0.56,1.01-1.22,1.33-1.96c0.32-0.74,0.48-1.55,0.48-2.42c0-0.87-0.16-1.67-0.48-2.42
				c-0.32-0.74-0.76-1.39-1.33-1.96c-0.56-0.56-1.22-1.01-1.95-1.33c-0.74-0.32-1.55-0.48-2.42-0.48c-0.87,0-1.67,0.16-2.41,0.48
				c-0.74,0.32-1.39,0.77-1.96,1.33c-0.57,0.56-1.01,1.22-1.33,1.96c-0.32,0.74-0.48,1.55-0.48,2.42c0,0.87,0.16,1.68,0.48,2.42
				C101.93,174.37,102.37,175.03,102.94,175.59z"/>
			<path class="st1" d="M177.94,228.38c-0.56-0.56-1.22-1.01-1.96-1.33c-0.74-0.32-1.55-0.48-2.42-0.48c-0.87,0-1.67,0.16-2.41,0.48
				c-0.74,0.32-1.4,0.76-1.96,1.33c-0.56,0.56-1.01,1.22-1.33,1.96c-0.32,0.74-0.48,1.55-0.48,2.42c0,0.87,0.16,1.67,0.48,2.41
				c0.32,0.74,0.76,1.39,1.33,1.96c0.56,0.56,1.22,1.01,1.96,1.33c0.74,0.32,1.54,0.48,2.41,0.48c0.87,0,1.67-0.16,2.42-0.48
				c0.74-0.32,1.39-0.76,1.96-1.33c0.56-0.56,1.01-1.22,1.33-1.96c0.32-0.74,0.48-1.54,0.48-2.41c0-0.87-0.16-1.68-0.48-2.42
				C178.95,229.6,178.51,228.94,177.94,228.38z"/>
			<path class="st1" d="M163.45,228.38c-0.56-0.56-1.22-1.01-1.96-1.33c-0.74-0.32-1.55-0.48-2.42-0.48c-0.87,0-1.67,0.16-2.41,0.48
				c-0.74,0.32-1.39,0.76-1.96,1.33c-0.57,0.56-1.01,1.22-1.33,1.96c-0.32,0.74-0.48,1.55-0.48,2.42c0,0.87,0.16,1.67,0.48,2.41
				c0.32,0.74,0.76,1.39,1.33,1.96c0.56,0.56,1.21,1.01,1.96,1.33c0.74,0.32,1.54,0.48,2.41,0.48c0.87,0,1.67-0.16,2.42-0.48
				c0.74-0.32,1.39-0.76,1.96-1.33c0.56-0.56,1.01-1.22,1.33-1.96c0.32-0.74,0.48-1.54,0.48-2.41c0-0.87-0.16-1.68-0.48-2.42
				C164.46,229.6,164.02,228.94,163.45,228.38z"/>
			<path class="st1" d="M440.52,182.86c-1.71-1.77-3.8-3.12-6.26-4.06c-2.47-0.93-5.26-1.4-8.39-1.4c-3.16,0-6.08,0.54-8.78,1.62
				c-2.69,1.08-5.01,2.56-6.96,4.44c-1.95,1.88-3.47,4.1-4.57,6.64c-1.1,2.54-1.65,5.28-1.65,8.21c0,1.87,0.26,3.7,0.77,5.51
				c0.52,1.8,1.14,3.3,1.89,4.49h-14.68h-0.14h-0.24c-1.97,0-3.86-0.16-5.68-0.48c-1.82-0.32-3.52-0.8-5.09-1.45
				c0.06-0.55,0.12-1.1,0.17-1.67c0.05-0.56,0.07-1.13,0.07-1.71v-53.66h-12.56v51.97c0,1.35-0.11,2.48-0.34,3.38
				c-0.23,0.9-0.57,1.62-1.04,2.15c-0.47,0.53-1.08,0.91-1.84,1.13c-0.76,0.23-1.67,0.34-2.73,0.34h-5.12h-0.34h-0.04
				c-1.97,0-3.86-0.16-5.67-0.48c-1.82-0.32-3.52-0.8-5.1-1.45c0.07-0.55,0.12-1.1,0.17-1.67c0.05-0.56,0.07-1.13,0.07-1.71v-23.67
				h-12.56v21.98c0,1.35-0.12,2.48-0.34,3.38c-0.22,0.9-0.57,1.62-1.04,2.15c-0.47,0.53-1.08,0.91-1.84,1.13
				c-0.76,0.23-1.67,0.34-2.74,0.34c-1.62,0-3.28-0.25-4.99-0.75c-1.71-0.5-3.44-1.23-5.18-2.2c0.03-0.39,0.05-0.78,0.07-1.18
				c0.01-0.4,0.02-0.8,0.02-1.18v-18.45h-12.56v16.76c0,1.35-0.11,2.48-0.34,3.38c-0.23,0.9-0.57,1.62-1.04,2.15
				c-0.47,0.53-1.08,0.91-1.84,1.13c-0.76,0.23-1.67,0.34-2.74,0.34c-1.65,0-3.34-0.26-5.09-0.77c-1.74-0.51-3.5-1.27-5.28-2.27
				c0.07-0.39,0.1-0.76,0.1-1.13c0-0.37,0-0.75,0-1.13v-14.1H276.5v12.41c0,1.35-0.11,2.48-0.34,3.38c-0.22,0.9-0.57,1.62-1.04,2.15
				c-0.47,0.53-1.08,0.91-1.83,1.13c-0.76,0.23-1.67,0.34-2.73,0.34h-9.61h-0.39h-7.82v-7.49c0-3.54-0.43-6.84-1.3-9.9
				c-0.87-3.06-2.2-5.72-3.99-7.97c-1.79-2.25-4.04-4.03-6.76-5.31c-2.72-1.29-5.93-1.93-9.64-1.93c-3.96,0-7.61,0.74-10.94,2.22
				c-3.33,1.48-6.38,3.41-9.15,5.8v-34.19H198.4v49.99c-0.87,1.58-1.65,3.11-2.34,4.59c-0.69,1.48-1.29,2.88-1.81,4.2h-9.95h-0.34
				h-0.05c-1.97,0-3.86-0.16-5.68-0.48c-1.82-0.32-3.52-0.8-5.09-1.45c0.06-0.55,0.12-1.1,0.17-1.67c0.05-0.56,0.07-1.13,0.07-1.71
				v-23.67h-12.56v21.98c0,1.35-0.11,2.48-0.34,3.38c-0.23,0.9-0.57,1.62-1.04,2.15c-0.47,0.53-1.08,0.91-1.84,1.13
				c-0.76,0.23-1.67,0.34-2.73,0.34h-5.31h-0.15h-0.24c-2.12,0-4.17-0.17-6.14-0.53c-1.96-0.35-3.77-0.93-5.41-1.74
				c-0.16-1.45-0.38-2.94-0.68-4.47c-0.29-1.53-0.62-3.05-0.99-4.57c-0.37-1.51-0.76-2.96-1.18-4.35c-0.42-1.38-0.82-2.66-1.21-3.81
				l-12.22,3.48c0.64,1.45,1.2,2.98,1.69,4.59c0.48,1.61,0.89,3.18,1.23,4.71c0.34,1.53,0.6,2.96,0.77,4.3
				c0.18,1.34,0.27,2.45,0.27,3.36c0,6.34-1.47,11.24-4.4,14.68c-2.93,3.44-7.45,5.17-13.57,5.17c-2.61,0-4.97-0.43-7.1-1.3
				c-2.12-0.87-3.94-2.08-5.46-3.62c-1.51-1.55-2.69-3.37-3.52-5.46c-0.84-2.09-1.26-4.35-1.26-6.76c0-1.16,0.08-2.37,0.24-3.62
				c0.16-1.26,0.39-2.48,0.67-3.67c0.29-1.19,0.65-2.33,1.09-3.41c0.43-1.08,0.92-2.05,1.47-2.92l-10.05-5.6
				c-0.9,1.42-1.75,2.97-2.54,4.66c-0.79,1.69-1.47,3.43-2.05,5.22c-0.58,1.79-1.03,3.57-1.35,5.36c-0.32,1.79-0.48,3.5-0.48,5.14
				c0,3.54,0.6,6.92,1.79,10.14c1.19,3.22,3.03,6.06,5.53,8.52c2.49,2.46,5.65,4.43,9.47,5.89c3.82,1.47,8.33,2.2,13.55,2.2
				c4.15,0,7.91-0.57,11.28-1.72c3.37-1.14,6.31-2.75,8.84-4.8c2.53-2.06,4.61-4.54,6.26-7.44c1.64-2.9,2.78-6.1,3.43-9.61
				c1.54,0.8,3.28,1.43,5.22,1.88c1.74,0.41,3.76,0.6,5.97,0.64c0.04,0,0.08,0,0.12,0.01c0.2,0,0.37,0.03,0.58,0.03h0.38h0.15h9.61
				c2.41,0,4.45-0.35,6.14-1.06c1.68-0.71,3.09-1.67,4.21-2.9c1.73,1.19,3.73,2.15,6,2.87c1.94,0.62,4.29,0.92,6.92,1.01
				c0.33,0.04,0.7,0.06,1.14,0.07c0.06,0,0.11,0.01,0.17,0.01h0.2h0.34h76.26h0.39h13.91c2.74,0,5-0.45,6.81-1.35
				c1.8-0.9,3.26-2.11,4.39-3.62c1.9,1.48,4.14,2.68,6.73,3.6c2.59,0.92,5.49,1.38,8.71,1.38h2.12c2.73,0,4.99-0.44,6.78-1.33
				c1.79-0.89,3.24-2.07,4.37-3.55c1.9,1.45,4.13,2.63,6.68,3.53c2.56,0.9,5.43,1.35,8.62,1.35h2.12c2.41,0,4.46-0.35,6.15-1.06
				c1.69-0.71,3.1-1.67,4.22-2.9c1.74,1.19,3.74,2.15,6.01,2.87c1.93,0.62,4.29,0.92,6.91,1.01c0.33,0.04,0.72,0.06,1.16,0.07
				c0.06,0,0.11,0.01,0.17,0.01h0.19h0.34h9.42c2.41,0,4.46-0.35,6.14-1.06c1.68-0.71,3.09-1.67,4.21-2.9
				c1.73,1.19,3.73,2.15,6,2.87c2.27,0.72,5.01,1.09,8.23,1.09h0.39h0.14h53.95v-20.86c0-3.22-0.46-6.11-1.38-8.67
				C443.54,186.79,442.22,184.63,440.52,182.86z M240.32,208.31h-33.86c1.06-2.99,2.41-5.83,4.06-8.52
				c1.64-2.69,3.45-5.05,5.43-7.08c1.98-2.03,4.07-3.64,6.28-4.83c2.2-1.19,4.39-1.79,6.54-1.79c1.58,0,3.07,0.26,4.49,0.77
				c1.42,0.51,2.64,1.38,3.67,2.58c1.03,1.21,1.85,2.83,2.46,4.86c0.61,2.03,0.92,4.54,0.92,7.53V208.31z M433.28,208.31H427
				c-1.74,0-3.29-0.24-4.66-0.72c-1.37-0.48-2.53-1.18-3.48-2.08c-0.95-0.9-1.68-1.98-2.2-3.24c-0.52-1.26-0.77-2.64-0.77-4.15
				c0-1.55,0.23-2.95,0.7-4.23c0.47-1.27,1.09-2.37,1.88-3.28c0.79-0.92,1.72-1.63,2.8-2.15c1.08-0.51,2.23-0.77,3.45-0.77
				c1.09,0,2.16,0.2,3.19,0.6c1.03,0.4,1.94,1.08,2.73,2.03c0.79,0.95,1.42,2.22,1.91,3.79c0.48,1.58,0.72,3.54,0.72,5.89V208.31z"
				/>
			<path class="st1" d="M421.81,165.49c0.56,0.56,1.22,1.01,1.95,1.33c0.74,0.32,1.55,0.48,2.42,0.48c0.87,0,1.67-0.16,2.41-0.48
				c0.74-0.32,1.39-0.76,1.96-1.33c0.56-0.56,1.01-1.22,1.33-1.96c0.32-0.74,0.48-1.55,0.48-2.42c0-0.87-0.16-1.67-0.48-2.42
				c-0.32-0.74-0.77-1.39-1.33-1.96c-0.56-0.56-1.22-1.01-1.96-1.33c-0.74-0.32-1.54-0.48-2.41-0.48c-0.87,0-1.68,0.16-2.42,0.48
				c-0.74,0.32-1.39,0.76-1.95,1.33c-0.56,0.56-1.01,1.22-1.33,1.96c-0.32,0.74-0.48,1.55-0.48,2.42c0,0.87,0.16,1.68,0.48,2.42
				C420.8,164.28,421.24,164.93,421.81,165.49z"/>
			<path class="st1" d="M602.01,182.96c-1.79-2.25-4.05-4.03-6.79-5.31c-2.74-1.29-5.99-1.93-9.76-1.93c-3.25,0-6.31,0.52-9.18,1.57
				c-2.87,1.05-5.52,2.44-7.97,4.18c-2.45,1.74-4.7,3.74-6.76,5.99c-2.06,2.25-3.9,4.59-5.53,7c-1.63,2.42-3.04,4.82-4.25,7.22
				c-1.21,2.4-2.2,4.61-2.97,6.64c-1.58-0.06-3.24-0.22-5-0.48c-1.75-0.26-3.44-0.76-5.05-1.5c-0.13-1.45-0.34-2.95-0.63-4.51
				c-0.29-1.56-0.63-3.11-1.01-4.64c-0.39-1.53-0.79-3.01-1.21-4.44c-0.42-1.43-0.84-2.73-1.26-3.89l-12.22,3.48
				c0.64,1.45,1.2,2.98,1.69,4.59c0.48,1.61,0.89,3.18,1.23,4.71c0.34,1.53,0.6,2.96,0.77,4.3c0.18,1.34,0.27,2.45,0.27,3.36
				c0,6.34-1.47,11.24-4.4,14.68c-2.93,3.44-7.45,5.17-13.57,5.17c-2.61,0-4.97-0.43-7.1-1.3c-2.12-0.87-3.94-2.08-5.46-3.62
				c-1.51-1.55-2.69-3.37-3.52-5.46c-0.84-2.09-1.26-4.35-1.26-6.76c0-1.16,0.08-2.37,0.24-3.62c0.16-1.26,0.39-2.48,0.67-3.67
				c0.29-1.19,0.65-2.33,1.09-3.41c0.43-1.08,0.92-2.05,1.47-2.92l-10.05-5.6c-0.9,1.42-1.75,2.97-2.54,4.66
				c-0.79,1.69-1.47,3.43-2.05,5.22c-0.58,1.79-1.03,3.57-1.35,5.36c-0.32,1.79-0.48,3.5-0.48,5.14c0,3.54,0.6,6.92,1.79,10.14
				c1.19,3.22,3.03,6.06,5.53,8.52c2.49,2.46,5.65,4.43,9.47,5.89c3.82,1.47,8.33,2.2,13.55,2.2c4.15,0,7.92-0.57,11.3-1.72
				c3.38-1.14,6.33-2.75,8.86-4.83c2.52-2.08,4.61-4.56,6.26-7.44c1.64-2.88,2.78-6.08,3.43-9.59c2,0.9,4.28,1.55,6.84,1.96
				c2.56,0.4,5.43,0.6,8.62,0.6h53.51v-18.06c0-3.54-0.43-6.84-1.28-9.9C605.12,187.86,603.8,185.21,602.01,182.96z M594.84,208.31
				h-33.86c1.06-2.99,2.42-5.83,4.06-8.52c1.64-2.69,3.45-5.05,5.43-7.08c1.98-2.03,4.08-3.64,6.28-4.83
				c2.2-1.19,4.39-1.79,6.54-1.79c1.58,0,3.08,0.26,4.5,0.77c1.41,0.51,2.64,1.38,3.67,2.58c1.03,1.21,1.85,2.83,2.46,4.86
				c0.61,2.03,0.92,4.54,0.92,7.53V208.31z"/>
			<path class="st1" d="M727.1,165.49c0.56,0.56,1.22,1.01,1.96,1.33c0.74,0.32,1.55,0.48,2.42,0.48s1.67-0.16,2.41-0.48
				c0.74-0.32,1.39-0.76,1.96-1.33c0.56-0.56,1.01-1.22,1.33-1.96c0.32-0.74,0.48-1.55,0.48-2.42c0-0.87-0.16-1.67-0.48-2.42
				c-0.33-0.74-0.77-1.39-1.33-1.96c-0.56-0.56-1.22-1.01-1.96-1.33c-0.74-0.32-1.54-0.48-2.41-0.48s-1.68,0.16-2.42,0.48
				c-0.74,0.32-1.39,0.76-1.96,1.33c-0.56,0.56-1.01,1.22-1.33,1.96c-0.33,0.74-0.48,1.55-0.48,2.42c0,0.87,0.16,1.68,0.48,2.42
				C726.1,164.28,726.54,164.93,727.1,165.49z"/>
			<path class="st1" d="M749.75,189.35c-0.92-2.56-2.23-4.73-3.94-6.5c-1.71-1.77-3.8-3.12-6.26-4.06c-2.47-0.93-5.26-1.4-8.39-1.4
				c-3.16,0-6.08,0.54-8.78,1.62c-2.69,1.08-5.01,2.56-6.96,4.44c-1.95,1.88-3.47,4.1-4.57,6.64c-1.1,2.54-1.64,5.28-1.64,8.21
				c0,1.87,0.26,3.7,0.77,5.51c0.52,1.8,1.14,3.3,1.89,4.49h-14.64h-0.2h-16.28h-1.83h-14.64h-1.83h-14.64h-1.83h-7.88v-29.03
				h-12.56v33.33c0,2.25-0.17,4.23-0.51,5.92c-0.34,1.69-0.98,3.16-1.93,4.4c-0.95,1.24-2.29,2.28-4.03,3.11
				c-1.74,0.84-4.01,1.53-6.81,2.08l1.64,10.72c3.57-0.55,6.71-1.32,9.39-2.32c2.69-1,5-2.29,6.93-3.86
				c1.93-1.58,3.48-3.49,4.66-5.75c1.17-2.25,2.02-4.93,2.54-8.02h8.55h1.83h14.64h1.83h14.64h1.83h16.28h0.2h53.9v-20.86
				C751.13,194.81,750.67,191.91,749.75,189.35z M738.57,208.31h-6.28c-1.74,0-3.29-0.24-4.66-0.72c-1.37-0.48-2.53-1.18-3.48-2.08
				c-0.95-0.9-1.68-1.98-2.2-3.24c-0.52-1.26-0.77-2.64-0.77-4.15c0-1.55,0.23-2.95,0.7-4.23c0.47-1.27,1.09-2.37,1.88-3.28
				c0.79-0.92,1.72-1.63,2.8-2.15c1.08-0.51,2.23-0.77,3.45-0.77c1.09,0,2.16,0.2,3.19,0.6c1.03,0.4,1.94,1.08,2.73,2.03
				c0.79,0.95,1.42,2.22,1.91,3.79c0.48,1.58,0.73,3.54,0.73,5.89V208.31z"/>
		</g>
		<g>
			<g>
				<path class="st1" d="M77.02,272.31h13.01v2.35H79.72v9.76h9.84v2.35h-9.84v12.9h-2.7V272.31z"/>
				<path class="st1" d="M132.97,300.15c-2.11,0-3.91-0.39-5.43-1.16c-1.51-0.77-2.76-1.81-3.73-3.12c-0.98-1.31-1.7-2.83-2.16-4.55
					c-0.47-1.73-0.7-3.54-0.7-5.44c0-1.77,0.23-3.48,0.69-5.12c0.46-1.64,1.21-3.19,2.24-4.64c0.54-0.74,1.14-1.38,1.82-1.92
					s1.4-0.99,2.17-1.33c0.77-0.34,1.59-0.6,2.45-0.77c0.86-0.17,1.74-0.25,2.65-0.25c2.03,0,3.8,0.37,5.3,1.1
					c1.51,0.73,2.76,1.73,3.76,2.99c1,1.26,1.75,2.73,2.24,4.4c0.49,1.67,0.74,3.44,0.74,5.32c0,1.94-0.22,3.79-0.66,5.54
					c-0.44,1.75-1.15,3.29-2.11,4.62s-2.22,2.38-3.74,3.16C136.97,299.76,135.13,300.15,132.97,300.15z M132.97,274.2
					c-1.47,0-2.81,0.3-4.02,0.91c-1.21,0.61-2.22,1.53-3.02,2.77c-0.78,1.21-1.35,2.51-1.72,3.89c-0.37,1.38-0.55,2.79-0.55,4.22
					c0,1.47,0.18,2.86,0.54,4.19s0.94,2.61,1.74,3.85c0.83,1.29,1.83,2.24,2.99,2.85c1.17,0.61,2.52,0.92,4.05,0.92
					c1.52,0,2.88-0.31,4.08-0.92c1.2-0.61,2.21-1.56,3.02-2.85c0.79-1.24,1.36-2.52,1.71-3.85c0.35-1.33,0.53-2.72,0.53-4.19
					c0-1.43-0.18-2.84-0.54-4.22c-0.36-1.38-0.92-2.68-1.7-3.89c-0.8-1.24-1.82-2.16-3.05-2.77
					C135.79,274.5,134.44,274.2,132.97,274.2z"/>
				<path class="st1" d="M178.01,272.31h7.31c1.16,0,2.22,0.14,3.18,0.42s1.78,0.71,2.46,1.29s1.21,1.32,1.59,2.21
					s0.56,1.95,0.56,3.18c0,0.89-0.16,1.7-0.48,2.42c-0.32,0.72-0.76,1.35-1.31,1.88s-1.2,0.97-1.94,1.31
					c-0.74,0.34-1.52,0.57-2.35,0.7v0.08c0.57,0.08,1.04,0.2,1.4,0.37c0.36,0.17,0.66,0.4,0.91,0.67s0.46,0.6,0.64,0.98
					s0.38,0.8,0.59,1.27l4.65,10.58h-2.97l-3.96-9.24c-0.18-0.41-0.37-0.82-0.58-1.22c-0.21-0.41-0.46-0.78-0.75-1.12
					s-0.62-0.62-1-0.85c-0.38-0.23-0.81-0.37-1.29-0.42c-0.17-0.03-0.33-0.04-0.51-0.04c-0.17,0-0.35,0-0.53,0h-2.91v12.9h-2.72
					V272.31z M180.73,284.42h2.99c0.79,0,1.59-0.09,2.38-0.26c0.8-0.17,1.51-0.46,2.15-0.85c0.64-0.4,1.15-0.91,1.55-1.55
					c0.4-0.64,0.59-1.42,0.59-2.35c0-1.15-0.18-2.04-0.55-2.68s-0.87-1.11-1.5-1.42c-0.63-0.31-1.37-0.49-2.2-0.55
					c-0.84-0.06-1.71-0.1-2.63-0.1h-2.77V284.42z"/>
				<path class="st1" d="M235.51,272.31h3.06l10.85,27.37h-2.81l-2.95-7.33h-13.8l-2.93,7.33h-2.62L235.51,272.31z M230.9,289.99
					h11.86l-5.91-15.08L230.9,289.99z"/>
				<path class="st1" d="M279.99,296.19c0.88,0.61,1.84,1.03,2.89,1.26s2.1,0.34,3.16,0.34c0.89,0,1.71-0.11,2.46-0.34
					c0.75-0.23,1.39-0.58,1.94-1.05s0.98-1.06,1.28-1.75c0.31-0.7,0.46-1.51,0.46-2.46c0-0.77-0.22-1.45-0.66-2.05
					c-0.44-0.6-0.98-1.14-1.62-1.61c-0.64-0.47-1.32-0.9-2.05-1.27c-0.73-0.38-1.38-0.72-1.95-1.02c-0.4-0.22-0.78-0.45-1.15-0.69
					s-0.74-0.48-1.11-0.73c-0.55-0.36-1.07-0.73-1.55-1.12c-0.48-0.39-0.91-0.81-1.27-1.27c-0.36-0.46-0.65-0.97-0.86-1.53
					c-0.21-0.56-0.32-1.2-0.32-1.91c0-1.2,0.25-2.25,0.75-3.15c0.5-0.9,1.15-1.64,1.96-2.23s1.73-1.03,2.77-1.32
					s2.09-0.44,3.18-0.44c0.93,0,1.84,0.07,2.73,0.2c0.89,0.13,1.77,0.37,2.65,0.7l-0.44,2.47c-0.77-0.38-1.57-0.65-2.42-0.79
					c-0.85-0.15-1.7-0.22-2.55-0.22c-0.75,0-1.48,0.08-2.19,0.25c-0.71,0.17-1.34,0.44-1.89,0.81s-1,0.86-1.33,1.46
					s-0.5,1.33-0.5,2.18c0,0.57,0.14,1.1,0.42,1.57c0.28,0.47,0.66,0.92,1.14,1.33c0.48,0.41,1.03,0.81,1.65,1.18
					c0.62,0.37,1.27,0.74,1.95,1.1c0.68,0.36,1.37,0.74,2.07,1.13c0.7,0.39,1.35,0.81,1.97,1.26s1.17,0.94,1.66,1.47
					s0.88,1.12,1.18,1.77c0.18,0.41,0.31,0.85,0.38,1.32c0.08,0.47,0.11,0.93,0.11,1.38c0,1.19-0.22,2.3-0.67,3.34
					c-0.45,1.04-1.17,1.9-2.18,2.57c-0.92,0.61-1.89,1.07-2.92,1.37s-2.1,0.45-3.21,0.45c-0.48,0-1-0.02-1.54-0.07
					s-1.08-0.11-1.63-0.21c-0.54-0.1-1.07-0.22-1.59-0.36s-0.99-0.33-1.43-0.55L279.99,296.19z"/>
				<path class="st1" d="M366.09,272.31h6.74c1.28,0,2.44,0.15,3.48,0.46s1.94,0.78,2.68,1.41c0.74,0.63,1.31,1.44,1.71,2.41
					c0.4,0.98,0.6,2.14,0.6,3.49c0,1.29-0.23,2.42-0.69,3.39c-0.46,0.97-1.08,1.78-1.88,2.43c-0.79,0.65-1.72,1.14-2.77,1.46
					c-1.06,0.33-2.19,0.49-3.41,0.49h-3.77v11.83h-2.7V272.31z M368.79,285.49h1.89c0.5,0,0.99-0.02,1.48-0.06
					c0.49-0.04,0.99-0.09,1.48-0.15c0.82-0.1,1.53-0.27,2.15-0.5c0.62-0.23,1.13-0.55,1.54-0.96c0.41-0.41,0.72-0.92,0.93-1.53
					s0.32-1.35,0.32-2.22c0-1.75-0.46-3.09-1.39-4.02c-0.92-0.93-2.26-1.4-4.01-1.4h-4.4V285.49z"/>
				<path class="st1" d="M418.56,272.31h3.06l10.85,27.37h-2.81l-2.95-7.33h-13.8l-2.93,7.33h-2.62L418.56,272.31z M413.95,289.99
					h11.86l-5.91-15.08L413.95,289.99z"/>
				<path class="st1" d="M463.56,272.31h2.7v25.01h10.98v2.35h-13.68V272.31z"/>
				<path class="st1" d="M508.62,272.31h13.41v2.35h-10.72v9.76h10.16v2.35h-10.16v10.54h11.18v2.35h-13.87V272.31z"/>
				<path class="st1" d="M554.9,296.19c0.88,0.61,1.84,1.03,2.89,1.26s2.1,0.34,3.16,0.34c0.89,0,1.71-0.11,2.46-0.34
					s1.39-0.58,1.94-1.05s0.98-1.06,1.28-1.75c0.31-0.7,0.46-1.51,0.46-2.46c0-0.77-0.22-1.45-0.66-2.05
					c-0.44-0.6-0.98-1.14-1.62-1.61s-1.32-0.9-2.05-1.27c-0.73-0.38-1.38-0.72-1.95-1.02c-0.4-0.22-0.78-0.45-1.15-0.69
					c-0.37-0.24-0.74-0.48-1.11-0.73c-0.55-0.36-1.07-0.73-1.55-1.12c-0.48-0.39-0.91-0.81-1.27-1.27
					c-0.36-0.46-0.65-0.97-0.86-1.53c-0.21-0.56-0.32-1.2-0.32-1.91c0-1.2,0.25-2.25,0.75-3.15s1.15-1.64,1.96-2.23
					s1.73-1.03,2.77-1.32s2.09-0.44,3.18-0.44c0.93,0,1.84,0.07,2.73,0.2c0.89,0.13,1.77,0.37,2.65,0.7l-0.44,2.47
					c-0.77-0.38-1.57-0.65-2.42-0.79c-0.85-0.15-1.7-0.22-2.55-0.22c-0.75,0-1.48,0.08-2.19,0.25c-0.71,0.17-1.34,0.44-1.89,0.81
					c-0.55,0.38-1,0.86-1.33,1.46c-0.33,0.6-0.5,1.33-0.5,2.18c0,0.57,0.14,1.1,0.42,1.57c0.28,0.47,0.66,0.92,1.14,1.33
					c0.48,0.41,1.03,0.81,1.65,1.18c0.62,0.37,1.27,0.74,1.95,1.1s1.37,0.74,2.07,1.13c0.7,0.39,1.35,0.81,1.97,1.26
					c0.62,0.45,1.17,0.94,1.66,1.47c0.49,0.53,0.88,1.12,1.18,1.77c0.18,0.41,0.31,0.85,0.38,1.32c0.08,0.47,0.11,0.93,0.11,1.38
					c0,1.19-0.22,2.3-0.67,3.34c-0.45,1.04-1.17,1.9-2.18,2.57c-0.92,0.61-1.89,1.07-2.92,1.37c-1.03,0.3-2.1,0.45-3.21,0.45
					c-0.48,0-1-0.02-1.54-0.07c-0.54-0.04-1.08-0.11-1.63-0.21c-0.54-0.1-1.07-0.22-1.59-0.36c-0.52-0.15-0.99-0.33-1.43-0.55
					L554.9,296.19z"/>
				<path class="st1" d="M607.77,274.66h-8.08v-2.35h18.87v2.35h-8.08v25.01h-2.72V274.66z"/>
				<path class="st1" d="M649.37,272.31h2.7v27.37h-2.7V272.31z"/>
				<path class="st1" d="M685.51,272.31h3.41l13.91,24.07h0.08v-24.07h2.7v27.37h-3.64l-13.68-23.6h-0.08v23.6h-2.7V272.31z"/>
				<path class="st1" d="M739.43,272.31h13.41v2.35h-10.72v9.76h10.16v2.35h-10.16v10.54h11.18v2.35h-13.87V272.31z"/>
			</g>
		</g>
	</g>
	<g>
		<g>
			<linearGradient id="SVGID_1_" gradientUnits="userSpaceOnUse" x1="836.8446" y1="170.986" x2="1122.9771" y2="170.986">
				<stop  offset="0" style="stop-color:#2D70B7"/>
				<stop  offset="1" style="stop-color:#66B97A"/>
			</linearGradient>
			<path class="st0" d="M1092.33,272.38c-6.64-0.88-11.9-5.51-14.6-12.7c-2.59-6.5-3.65-11.61-8.29-12.59
				c-1.64-0.37-3.32,0.33-4.78,1.75c-1.72,1.64-3.21,4.31-4.2,7.45c-7.7,22.27-7.7,22.27-15.84,42.74
				c-2.52,5.99-10.04,10.44-16.64,9.6c-21.76-3.18-21.76-3.18-44.94-7.63c-4.09-0.88-7.85-0.69-10.18,0.66l-34.57-9.45
				c-1.42-2.23-4.53-4.2-8.4-5.44c-22.3-7.7-22.3-7.7-42.74-15.84c-5.95-2.41-10.48-10-9.6-16.61c1.17-8.18,1.93-13.29,2.63-17.7
				c1.13-7.34,2.19-12.78,5-27.23c1.31-6.06,0.26-11.39-3.21-12.48c-4.53-1.46-7.96,2.45-13.47,6.9
				c-5.95,4.78-12.81,6.17-18.98,3.61c-25.22-11.13-9.42-70.34,18.03-67.35c6.64,0.88,11.9,5.51,14.64,12.63
				c2.56,6.61,3.58,11.72,8.21,12.67c3.54,0.8,7.16-3.29,9.02-9.16c7.7-22.3,7.7-22.3,15.84-42.74c3.8-9.05,14.49-9.78,23-8.91
				c5.4,0.55,10.7,1.9,15.99,3.25c10.7,2.74,21.35,5.55,32.09,8.21c4.93,1.24,10.04,2.15,15.04,3.25c2.7,0.58,5.4,1.2,8.14,1.79
				c0.95,0.22,6.97,0.88,7.26,1.61c-1.97-4.67-6.06-8.61-12.23-11.64c-4.93-2.41-10.04-4.45-14.89-7.01
				c-19.09-9.93-26.32-31.03-17.19-49.75c8.98-18.36,30.41-26.06,48.91-17.52c16.94,7.78,24.97,25.62,20.41,43.47
				c-0.55,1.97-1.2,3.94-2.01,5.91c-1.57,3.65-3.32,7.23-5.04,10.8c-5.91,12.48-5.99,20.66,0.88,27.3
				c2.81,2.74,6.79,5.22,12.01,7.63c0.29,0.11,0.55,0.22,0.84,0.36c6.94,2.52,11.83,4.45,24.27,9.42c2.15,0.91,4.12,2.48,5.69,4.42
				c0.73,0.33,1.46,0.66,2.19,0.99c-0.33,0.26-0.66,0.47-0.99,0.69c2.04,3.18,3.18,6.97,2.7,10.55
				c-3.18,21.76-3.18,21.76-7.67,44.93c-1.31,6.02-0.26,11.35,3.21,12.45c4.49,1.46,7.96-2.41,13.47-6.75
				c5.95-4.89,12.81-6.28,18.98-3.72C1135.47,216.64,1119.81,275.05,1092.33,272.38z"/>
			<path class="st1" d="M1068.35,216.71c-0.73-9.82-3.25-18.65-7.52-26.46c-4.27-7.81-10.29-14.53-18.03-20.15
				c-7.74-5.62-17.05-9.93-28-12.92c-11.06-2.99-21.79-3.83-32.27-2.52c-10.48,1.31-20.04,4.34-28.66,9.13
				c-8.65,4.82-16.13,11.1-22.45,18.94c-6.31,7.85-10.8,16.72-13.51,26.61c-0.77,2.81-1.31,5.88-1.61,9.2
				c-0.29,3.29-0.44,6.64-0.37,10.04c0.04,3.39,0.22,6.68,0.55,9.86c0.36,3.18,0.73,5.99,1.17,8.4l-37.49-10.22
				c-0.69,4.42-1.46,9.53-2.63,17.7c-0.88,6.61,3.65,14.2,9.6,16.61c20.44,8.14,20.44,8.14,42.74,15.84
				c3.87,1.24,6.97,3.21,8.4,5.44c0.73,1.13,1.06,2.37,0.77,3.58c-0.95,4.64-6.06,5.69-12.56,8.29c-7.23,2.7-11.86,7.96-12.63,14.64
				c-2.92,27.34,55.78,43.18,67.24,17.96c2.56-6.21,1.17-13.03-3.76-18.98c-4.31-5.51-8.21-8.98-6.75-13.47
				c0.36-1.13,1.13-2.01,2.26-2.56c2.34-1.35,6.1-1.53,10.18-0.66c23.18,4.45,23.18,4.45,44.94,7.63c6.61,0.84,14.13-3.61,16.64-9.6
				c8.14-20.48,8.14-20.48,15.84-42.74c0.99-3.14,2.48-5.8,4.2-7.45l0.15-0.51C1067.87,237.05,1069.04,226.53,1068.35,216.71z
				 M1018.99,243.25l-7.92,29.06l-21.97-5.99c-5.95-1.61-11.1-3.94-15.44-6.94c-4.31-2.99-7.74-6.53-10.26-10.59
				c-2.52-4.09-4.09-8.58-4.67-13.43c-0.62-4.89-0.18-9.97,1.24-15.26c1.5-5.44,3.65-10.11,6.5-14.13c2.85-4.02,6.1-7.23,9.82-9.67
				c3.69-2.45,7.67-4.05,11.9-4.82c4.27-0.77,8.54-0.58,12.81,0.58c3.83,1.06,7.37,2.77,10.59,5.15c3.21,2.41,5.77,5.66,7.63,9.71
				c1.83,4.09,2.81,9.09,2.96,15.08C1022.28,227.96,1021.22,235.04,1018.99,243.25z"/>
		</g>
		<path class="st2" d="M1016.37,112.9c1.42,2.48,3.28,4.67,5.55,6.5c2.3,1.83,4.96,3.18,7.99,3.98c1.93,0.51,3.83,0.8,5.69,0.84
			c1.09,0,2.15-0.07,3.21-0.22c2.92-0.4,5.62-1.35,8.1-2.77c2.52-1.42,4.67-3.29,6.53-5.58c1.83-2.26,3.14-4.93,3.98-7.96
			c0.84-3.07,1.02-6.02,0.62-8.91c-0.44-2.92-1.35-5.62-2.77-8.1c-1.46-2.52-3.29-4.71-5.59-6.53c-2.26-1.83-4.89-3.1-7.92-3.94
			c-0.04-0.04-0.04-0.04-0.07-0.04c-3.03-0.84-5.99-1.02-8.91-0.62c-2.88,0.4-5.58,1.35-8.1,2.77c-2.52,1.42-4.67,3.29-6.5,5.58
			c-1.83,2.26-3.18,4.93-4.02,7.99c-0.8,3.03-1.02,5.99-0.58,8.91C1013.99,107.68,1014.91,110.38,1016.37,112.9z"/>
	</g>
</g>
</svg>
