<svg width="40" height="40" viewBox="0 0 40 40" fill="none" xmlns="http://www.w3.org/2000/svg">
<path fill-rule="evenodd" clip-rule="evenodd" d="M19.1037 0.00621151C18.101 0.0675827 17.4059 0.142162 16.646 0.269841C13.2821 0.835043 10.126 2.25477 7.45647 4.40362C6.39976 5.25422 5.29831 6.35085 4.45128 7.39565C2.27073 10.0853 0.834595 13.2603 0.26491 16.651C0.0667345 17.8303 0 18.6748 0 20.0025C0 21.3301 0.0667345 22.1746 0.26491 23.354C0.830112 26.7179 2.24984 29.874 4.39869 32.5435C5.24929 33.6002 6.34591 34.7017 7.39072 35.5487C10.0804 37.7293 13.2553 39.1654 16.646 39.7351C17.8254 39.9333 18.6699 40 19.9975 40C21.3252 40 22.1697 39.9333 23.349 39.7351C26.7343 39.1663 29.919 37.7258 32.6043 35.5487C33.6492 34.7017 34.7458 33.6002 35.5964 32.5435C37.741 29.8793 39.1661 26.7112 39.7302 23.3537C39.9283 22.1747 39.9951 21.33 39.9951 20.0025C39.9951 18.6749 39.9283 17.8303 39.7302 16.6512C39.1661 13.2937 37.741 10.1257 35.5964 7.4614C34.7458 6.40469 33.6492 5.30324 32.6043 4.45621C30.1944 2.50239 27.3783 1.13784 24.3763 0.469271C23.492 0.272322 22.5216 0.128367 21.5051 0.0433277C21.1606 0.0144833 19.4102 -0.0125467 19.1037 0.00621151ZM21.0019 1.35171C23.6596 1.50466 26.0691 2.14985 28.4294 3.34051C33.6154 5.95655 37.3158 10.8995 38.3662 16.6137C39.1853 21.0697 38.3568 25.6898 36.0455 29.5551C32.9993 34.6494 27.7514 37.9946 21.8787 38.5855C17.8895 38.987 13.8605 38.0938 10.4465 36.0512C8.87353 35.1101 7.51776 34.0086 6.26061 32.6503C3.88672 30.0854 2.26252 26.8385 1.62884 23.3912C0.626226 17.9367 2.0926 12.3231 5.62974 8.07511C8.95688 4.07931 13.7437 1.65798 18.9169 1.354C19.4689 1.32158 20.4593 1.32049 21.0019 1.35171ZM19.0369 2.96884C17.8659 3.05094 16.964 3.18935 15.9179 3.44751C13.3625 4.07811 10.9581 5.31906 8.93738 7.05018C8.49497 7.42922 7.64805 8.26152 7.28356 8.67548C3.91583 12.5003 2.43291 17.5481 3.20342 22.564C3.87516 26.9372 6.2498 30.9023 9.79124 33.5642C12.4485 35.5616 15.5145 36.7044 18.8635 36.9458C19.3453 36.9805 20.7003 36.9802 21.1983 36.9453C26.2262 36.5924 30.7783 34.0778 33.7795 29.9953C34.3284 29.2486 34.9023 28.2876 35.3512 27.3633C36.9544 24.0625 37.4358 20.3134 36.7248 16.6671C36.1843 13.8953 34.9081 11.2243 33.0849 9.04904C30.3712 5.81131 26.5877 3.70449 22.4257 3.11365C21.6266 3.00022 21.2372 2.97447 20.1977 2.96641C19.64 2.96209 19.1177 2.96318 19.0369 2.96884ZM14.6876 16.5603V16.5603C14.6876 17.0909 14.2575 17.5209 13.727 17.5209H13.3802H12.0728L12.0661 21.0231L12.0613 23.4914C12.0602 24.0638 11.5979 24.5284 11.0254 24.5322V24.5322V24.5322C10.4552 24.5361 9.99066 24.0755 9.98956 23.5053L9.9848 21.0368L9.97802 17.5343L8.66388 17.5274L8.31005 17.5255C7.77886 17.5227 7.34973 17.0913 7.34973 16.5601V16.5601V16.5601C7.34973 16.0297 7.7797 15.5998 8.31009 15.5998H11.0187H13.727C14.2575 15.5998 14.6876 16.0298 14.6876 16.5603V16.5603ZM22.831 20.053C23.8702 22.495 24.7204 24.5032 24.7204 24.5158C24.7204 24.5283 24.2582 24.5386 23.6931 24.5386H23.2862C22.9436 24.5386 22.6658 24.2609 22.6657 23.9182V23.9182V23.9182C22.6657 23.5262 22.487 23.1556 22.1803 22.9115L21.8652 22.6607V22.6607C21.3595 22.2581 21.0649 21.6469 21.0649 21.0005V20.6059V20.0119C21.0649 19.4845 20.8552 18.9787 20.4822 18.606V18.606L20.4726 18.5964C20.1574 18.2814 19.6454 18.2851 19.3348 18.6047V18.6047V18.6047C18.9727 18.9773 18.7701 19.4763 18.7701 19.9959V20.6021V21.0076C18.7701 21.6469 18.4809 22.252 17.9834 22.6537V22.6537L17.6779 22.9003C17.3732 23.1463 17.1941 23.5154 17.1896 23.907V23.907V23.907C17.1856 24.2503 16.9075 24.5271 16.5642 24.5294L16.1455 24.5322C15.3194 24.5378 15.1112 24.5324 15.1217 24.5056C15.1289 24.487 15.9846 22.4755 17.0231 20.0355L18.5139 16.5332C18.7546 15.9675 19.3117 15.6019 19.9265 15.6061V15.6061V15.6061C20.5428 15.6103 21.0977 15.9801 21.3391 16.5471L22.831 20.053ZM29.9103 15.6292C30.4096 15.6902 30.9171 15.8593 31.3245 16.1004C31.6262 16.279 32.1095 16.7649 32.2708 17.0518C32.5668 17.5781 32.6795 18.0265 32.6803 18.6817C32.6807 19.0227 32.6689 19.1645 32.6216 19.3867C32.3292 20.7602 31.2469 21.6228 29.6073 21.7889C29.4553 21.8043 28.978 21.8169 28.5466 21.8169H27.7623V23.1778V23.498C27.7623 24.0727 27.2964 24.5386 26.7217 24.5386V24.5386V24.5386C26.147 24.5386 25.681 24.0727 25.681 23.498V20.0692V17.5943C25.681 16.4928 26.5741 15.5998 27.6756 15.5998V15.5998C28.9606 15.5999 29.7556 15.6103 29.9103 15.6292ZM27.7623 18.7217V19.9491L28.4628 19.9489C29.4911 19.9486 29.7566 19.9069 30.0691 19.6968C30.5456 19.3764 30.7178 18.6963 30.4613 18.148C30.3615 17.9348 30.2085 17.786 29.9669 17.6671C29.6636 17.5178 29.4716 17.4943 28.5605 17.4943H27.7623V18.7217ZM20.2319 19.9912C20.3078 20.0291 20.4064 20.106 20.4509 20.1622C20.8845 20.7097 20.3704 21.4531 19.6977 21.2515C19.5471 21.2064 19.3446 21.0152 19.2866 20.8635C19.1922 20.616 19.2388 20.3415 19.4071 20.1549C19.6162 19.9228 19.9584 19.8549 20.2319 19.9912ZM19.9203 24.3276C20.2471 24.331 20.5085 24.5416 20.4491 24.863C20.3863 25.2031 20.2958 25.6812 20.1944 26.2063C20.0462 26.9737 19.9524 27.6487 19.9156 27.9306C19.9036 28.0224 19.9283 28.1737 19.8375 28.1554V28.1554C19.7883 28.1455 19.7954 28.0476 19.7896 27.9976C19.7465 27.6209 19.566 25.8807 19.471 24.9446C19.434 24.5794 19.5533 24.3238 19.9203 24.3276V24.3276ZM18.6668 25.0456C18.9284 25.0456 19.084 25.2371 19.0393 25.4948C19 25.7215 18.9486 26.0175 18.8926 26.3397C18.8897 26.3565 18.8868 26.3732 18.8839 26.3897C18.751 27.1529 18.5786 27.1434 18.4482 26.3797V26.3797C18.3807 25.9848 18.3179 25.6207 18.2784 25.3928C18.2548 25.2565 18.3299 25.1222 18.4583 25.0708V25.0708C18.489 25.0585 18.5216 25.0516 18.5547 25.0502L18.6668 25.0456V25.0456ZM21.56 25.3356C21.5525 25.3686 21.5099 25.7144 21.3953 26.3852V26.3852C21.2619 27.1658 21.0889 27.1696 20.9412 26.3915C20.8833 26.0869 20.8274 25.7785 20.789 25.5378C20.7427 25.2467 20.8931 25.0456 21.1878 25.0456V25.0456H21.3324C21.4843 25.0456 21.5961 25.188 21.56 25.3356V25.3356Z" fill="#6173F3"/>
</svg>
