<svg viewBox="0 0 1215 1519" xmlns="http://www.w3.org/2000/svg" width="1215" height="1519"><style>*{fill:#000}@media (prefers-color-scheme:dark){*{fill:#fff}}</style><path fill="#020202" d="M544.133 510.29c2.035 1.492 3.951 3.067 5.867 4.71l2.168 1.734c4.224 3.478 6.497 6.243 8.832 11.266l1.395 2.516c9.226 17.792 12.373 40.372 14.139 60.24l.266 2.982.2 2.262q12.063-.36 24.124-.73 5.603-.174 11.205-.34 5.418-.161 10.835-.33 2.055-.064 4.111-.124c11.439-.009 11.439-.009 22.725-1.476 2.303-2.307 2.303-2.307 3.313-5.562l1.394-3.586q.659-1.923 1.293-3.852l1.262-3.79a361 361 0 0 0 2.453-7.968c1.334-4.475 2.839-8.886 4.347-13.304A197 197 0 0 0 669 538.063c1.864-7.283 4.59-14.652 10-20.063 10.688-2.444 21.96-2.615 32.875-3.125l2.58-.123c5.847-.277 11.696-.522 17.545-.752l2.097-.086c4.01-.164 8.016-.277 12.028-.351l2.882-.105c4.488-.029 6.377.085 10.079 2.835 2.554 3.613 2.623 6.487 1.914 10.707-.6 2.141-1.324 4.202-2.09 6.29-1.113 3.316-1.914 6.685-2.722 10.085-1.674 6.93-3.717 13.698-5.906 20.481a501 501 0 0 0-4.782 15.769 380 380 0 0 1-5.625 17.75l-.732 2.182c-2.23 6.345-2.23 6.345-5.143 8.443-2.74.913-4.786 1.232-7.637 1.445l-2.963.224-3.31.233-3.555.257c-17.005 1.193-34.026 2.129-51.046 3.073q-5.903.328-11.804.666c-21.525 1.233-43.03 2.355-64.589 2.783l-2.127.046q-2.796.058-5.593.106c-3.509.174-6.908.618-10.376 1.167 1.016 3.555 2.282 5.434 5.125 7.688L579 628v2l1.809-.656c16.049-5.151 31.403-2.658 46.262 4.751 4.372 2.343 7.443 4.962 10.402 8.913 1.556 2.127 1.556 2.127 3.84 4.254 3.204 3.265 5.9 6.758 8.625 10.426l1.608 2.15c2.785 3.767 5.408 7.545 7.766 11.6 8.118 13.91 18.518 20.992 33.52 26.328C706.752 703.189 715.729 711.9 724 724c5.47 7.946 10.995 15.328 18 22l1.492 1.582c9.87 9.716 23.813 14.765 37.434 14.724 5.56-.125 9.948-.373 14.074-4.306 8.25-10.598 10.986-20.436 11.269-33.682.016-.721.032-1.443.05-2.186q.074-3.537.138-7.073l.046-2.46q.117-6.43.22-12.861c.071-4.415.166-8.828.266-13.241.073-3.41.128-6.82.177-10.23q.04-2.442.102-4.882c.056-2.277.086-4.554.11-6.833l.072-3.917c-.704-5.686-3.416-9.88-7.45-13.947-3.946-4.479-6.708-9.797-7.16-15.825.405-5.026 2.391-9.673 5.16-13.863 3.095-1.548 5.679-1.754 9-1 2.95 1.667 5.69 3.502 8.45 5.469 2.626 1.874 2.626 1.874 6.55 1.531a821 821 0 0 0 3.48-4.398c4.488-4.73 10.343-5.861 16.645-6.04 11.442.415 22.743 2.056 31.875 9.438l2 3c1.766 1.028 3.534 2.052 5.332 3.023 1.867 1.093 3.145 2.454 4.668 3.977 6.304 3.242 13.643 3.114 20.578 3.105l4.27.045c2.196.023 4.39.038 6.587.025 11.386-.047 20.39 1.723 29.44 9.2C964.051 665.592 964.051 665.592 963 676c-1.74 4.93-4.463 8.396-9 11-9.745 3.913-17.112 3.09-26.75-.29-10.957-3.461-18.657.401-28.5 5.165l-2.078.992c-4.87 2.436-9.548 4.779-11.386 10.263-2.02 9.554-1.94 19.58-2.315 29.308-1.31 32.965-9.53 60.675-31.971 85.562l-1.492 1.69C839.356 831.082 826.757 839.77 812 844l-3.574 1.082c-8.647 2.557-16.302 4.074-25.297 3.91l-5.178-.05c-2.697-.032-5.393-.067-8.09-.113a936 936 0 0 0-7.857-.087l-2.419-.056c-5.325-.024-8.803.973-13.585 3.314a78 78 0 0 1-4.05 1.246l-2.105.593-2.158.598c-6.406 1.824-12.564 3.924-18.687 6.563-.21 9.925.344 19.711 1.117 29.6.194 2.5.374 5 .553 7.502 1.12 14.98 2.717 30.051 7.143 44.46l.768 2.644c1.224 4.145 2.543 8.214 4.106 12.243 3.84 10.048 4.802 18.886 4.998 29.644.448 20.513 11.185 39.202 24.772 54.169C764 1043 764 1043 765.875 1045.625c5.535 6.186 13.418 9.638 20.683 13.411 4.1 2.16 7.664 4.536 11.27 7.456 4.064 2.821 8.631 4.794 13.098 6.895 3.422 1.796 5.465 3.068 6.886 6.676L818 1082c-3.899 3.899-10.067 3.949-15.375 4.09q-3.322-.025-6.645-.117c-2.885-.072-2.885-.072-5.273.511-4.06.774-8.082.707-12.207.704h-2.703c-6.066-.053-11.854-.583-17.828-1.684-4.088-.694-8.176-.933-12.313-1.16-2.825-.366-5.067-1.18-7.656-2.344.462-2.155.912-3.855 2.063-5.75 1.669-4.006 1.763-8.23.125-12.237-1.156-2.06-2.395-4.036-3.688-6.013a912 912 0 0 1-2.762-4.473l-1.4-2.274c-3.491-5.878-6.347-12.11-9.338-18.253q-1.341-2.596-2.687-5.187c-2.378-4.74-4.212-9.643-6.067-14.606-1.122-2.887-2.355-5.66-3.683-8.457-3.128-6.738-5.49-13.732-7.883-20.756a747 747 0 0 0-1.809-5.224c-1.8-5.232-3.352-10.478-4.746-15.832-1.971-7.566-4.297-14.993-6.691-22.434-1.193-3.712-2.29-7.445-3.371-11.192-3.357-10.89-7.566-21.609-15.063-30.312a396 396 0 0 1-3-4l-2.375 3-2.625 3h-2l-.812 1.625L659 905l-1.187 2.625c-1.548 2.881-3.174 5.287-5.102 7.91-3.646 5.181-6.391 10.47-8.899 16.278l-1.302 3.012c-4.076 9.849-6.024 19.668-7.51 30.175-2.028 13.832-4.94 25.368-11.687 37.813-6.328 12.502-6.832 27.674-3.313 41.187 2.027 5.692 4.902 10.832 8 16l1.332 2.422c3.502 5.56 8.962 8.713 14.463 12.08 5.989 3.71 5.989 3.71 7.205 7.498-4.177 1.967-7.85 2.39-12.441 2.668l-2.172.135a893 893 0 0 1-6.95.384l-2.38.132c-9.32.505-18.6.9-27.932.431l-2.35-.116c-3.936-.275-7.208-.928-10.775-2.634.29-5.02 1.205-8.646 3.375-13.187 8.638-20.032 6.44-44.632 4.625-65.813l-.261-3.193c-.443-5.554-.443-5.554-.995-11.099-1.306-11.839 2.151-21.042 6.331-32.05 5.57-14.689 8.571-29.512 10.83-45.013 1.07-7.1 2.947-13.791 5.095-20.645q1.005-3.499 2-7l-2.724-.272c-18.24-1.865-36.016-4.107-53.735-9.024a289 289 0 0 0-6.646-1.743c-21.143-5.837-43.419-16.939-61.27-29.524l-1.957-1.341a113 113 0 0 1-11.02-8.743c-2.673-2.195-5.598-3.735-8.648-5.353v-2l-1.703-.805c-2.476-1.288-4.735-2.756-7.047-4.32l-2.422-1.633L458 819c2.203 6.221 5.56 10.19 10 15a667 667 0 0 1 3.063 3.688c1.88 2.207 3.612 3.872 5.875 5.75C488.995 853.526 498.42 868.232 500 884c1.412 16.72-2.771 33.908-6.798 50.003a269 269 0 0 0-4.612 22.349c-.37 2.292-.77 4.58-1.211 6.859-3.433 18.039-1.365 37.643 8.879 53.25L498 1019a477 477 0 0 1 2.813 4.813c10.559 17.476 20.22 29.946 38.57 39.718 5.514 3.095 11.097 6.42 13.617 12.469l-1 2c-2.398.41-2.398.41-5.59.633l-3.542.255-3.806.237-3.844.253c-7.195.447-14.383.82-21.593.872l-2.117.028c-4.184-.026-7.653-.637-11.508-2.278-1.108-2.295-1.014-3.82-.82-6.348-.224-3.299-1.209-4.646-3.18-7.277l-1.926-2.613L492 1059a4827 4827 0 0 1-4.187-5.812A257 257 0 0 0 480 1043l-3.602-4.655a360 360 0 0 0-13.96-16.908c-25.7-29.314-25.7-29.314-25.875-47.937l-.031-2.047c.086-5.132 1.251-9.661 2.677-14.575 5.368-19.538 7.222-39.467.791-58.878l-2-3c-3.815 4.069-6.598 7.927-8.95 12.977-1.485 2.861-3.42 5.27-5.402 7.804-2.569 3.458-4.783 7.13-7.035 10.801-1.41 2.114-2.822 3.647-4.613 5.418a65 65 0 0 0-2 3.625C408 939 408 939 405 940c-1.01 1.766-1.01 1.766-2 4-2.421 3.818-5.058 7.431-7.75 11.063-7.165 9.883-13.234 18.732-15.25 30.937l-.613 3.488c-2.275 14.654-1.636 28.329.3 42.95l.45 3.59c1.559 10.822 4.982 20.14 13.863 26.972 4.784 3.097 9.574 6.191 15 8l-1 5c-8.386 1.878-16.424 2.306-25 2.25l-3.617.023c-19.151-.041-19.151-.041-23.383-4.273-.125-2.625-.125-2.625 0-5l2-1c-.537-5.132-1.417-9.993-2.662-14.997-3.67-14.836-5.533-29.847-7.338-45.003l-.268-2.242c-.82-6.858-1.635-13.716-2.426-20.577l-.242-2.105q-.325-2.817-.647-5.636-.435-3.577-.952-7.142C341.991 959.846 341.59 949.866 348 941a233 233 0 0 1 3-3q1.22-1.696 2.375-3.437c2.19-3.145 4.621-5.175 7.625-7.563a249 249 0 0 0 4-6 199 199 0 0 1 2.875-3.187c15.073-17.473 22.18-43.646 27.074-65.641l.542-2.435c1.376-7.4 1.645-14.508 1.607-22.018l-.005-3.194c-.005-3.342-.018-6.683-.03-10.025q-.009-3.414-.014-6.828-.017-8.336-.049-16.672h-2l-1 3.5c-3.42 10.274-8.802 20.628-15 29.5l-1.566 2.25c-3.02 4.19-3.02 4.19-4.434 5.75h-2l-.836 1.828c-4.8 8.956-17.593 13.643-26.64 17.125-10.83 2.927-24.092 1.819-34.524-1.953l-3-2 1-5c3.51-1.116 6.59-.97 10.25-.812 12.764.053 24.735-2.928 34.75-11.188 1.734-1.77 3.295-3.54 4.781-5.52C358 823 358 823 361 821c1.11-1.813 1.11-1.813 2-3.875 1.423-3.007 2.973-5.482 5-8.125 1.918-3.357 3.219-6.61 4.25-10.312 2.044-7.15 5.067-13.91 7.948-20.751 1.01-2.438 1.936-4.905 2.865-7.375 2.055-5.21 4.977-9.826 7.937-14.562l1-2h2c.26-.583.52-1.165.79-1.766 4.565-8.425 14.898-15.786 23.667-19.187 3.327-1.37 6.126-3.351 9.043-5.422l1.684-1.172A372 372 0 0 0 434 723l2.625-1.875c2.886-2.582 4.857-5.486 6.875-8.75l1.196-1.888c2.14-3.433 4.045-6.872 5.741-10.55C461.428 676.935 482.316 665.006 505 656c0-3.198-.721-5.876-1.524-8.953-3.138-12.348-4.745-24.788-6.226-37.422l-.323-2.72c-7.847-66.719-7.847-66.719 5.745-87.456 1.677-1.97 3.41-3.715 5.328-5.449l2.813-2.812c10.013-6.873 22.897-7.198 33.32-.899"/><path fill="#040303" d="m559 433 2.29 1.473c8.377 5.926 14.065 13.666 16.335 23.738 1.359 10.104-1.41 18.115-7.418 26.203C563.199 492.78 555.975 497.872 545 499c-7.962.642-16.215-.31-22.852-5.027-8.727-7.736-14-15.186-15.539-26.965-.317-8.534 1.254-18.432 6.579-25.383C525.536 430.1 543.209 422.483 559 433"/><path fill="#1f161f" d="M719 609v1q-13.236.788-26.471 1.565-6.148.36-12.295.726-5.942.355-11.885.7l-4.513.268c-7.953.477-15.866.85-23.836.741v-2c11.487-1.155 22.88-2.197 34.431-2.031 5.358.067 10.66-.14 16.006-.469 9.527-.579 19.022-.596 28.563-.5"/><path fill="#30262e" d="M575 586h1l1 10 51-1v1c-5.837.686-11.64 1.22-17.508 1.535l-2.332.13q-2.418.135-4.835.265-3.677.2-7.352.408l-4.73.26-2.192.123c-4.355.232-8.69.404-13.051.279-1-1-1-1-1.098-3.723l.035-3.34.028-3.347z"/><path fill="#1b101d" d="M804 650h2c3.213 3.576 4.283 5.914 4.172 10.742a202 202 0 0 1-.422 5.133l-.2 2.664A435 435 0 0 1 809 675l-2 1 .105-3.91q.043-2.576.082-5.153l.077-2.568c.064-5.594-.69-9.389-3.264-14.369"/><path fill="#1c101a" d="M345 946h1l-1 28h-1c-2.476-17.868-1.239-22.549 1-28"/><path fill="#140910" d="m471 674 2 1c-5.563 6.43-11.266 12.724-17 19 0-6.577 7.541-12.657 12-17.125q1.491-1.447 3-2.875"/><path fill="#1a1116" d="M525 433v2a66 66 0 0 1-3.625 3.063c-3.879 3.273-6.496 6.715-9.148 11.019C511 451 511 451 509 453c.342-6.84 4.165-11.224 8.883-15.844C522.568 433 522.568 433 525 433"/><path fill="#251923" d="M662 561h1c-.392 5.955-1.371 10.628-4 16h-1c.524-5.868 1.761-10.549 4-16"/><path fill="#281f2b" d="M797 1067c9.595 4.039 9.595 4.039 13 7-5.281-.515-8.572-2.255-13-5z"/><path fill="#1e1321" d="M900 688h5c-3.402 2.748-7.485 6-12 6l1-3 6-1z"/><path fill="#19101b" d="M727 1039c2.97 2.546 4.478 5.422 6 9l-1 2c-2.634-3.653-4.469-6.485-5-11"/><path fill="#1c141e" d="m688 517-12 6c1.71-3.844 1.71-3.844 4.313-5.25 2.705-.755 4.894-.91 7.687-.75"/><path fill="#180f1c" d="M559 494c-3.423 3.15-6.443 3.562-11 4 3.956-3.033 5.968-4.132 11-4"/><path fill="#1f121e" d="M577 461h1l-1 11-2-1c.458-3.47.891-6.674 2-10"/><path fill="#261b20" d="M513 442c.836 2.376 1.184 3.544.223 5.922L510 453c-1-3-1-3-.223-5.043l1.16-2.144 1.153-2.168z"/><path fill="#201721" d="M529 1059c3.912 1.156 6.875 2.355 10 5-6.523-.492-6.523-.492-8.937-3.062z"/><path fill="#1f151e" d="m375 791 2 3-3 6h-2z"/><path fill="#221823" d="M592 1063c1.465 3.81.552 6.324-1 10l-2 1c.672-3.806 1.727-7.352 3-11"/><path fill="#1e151e" d="M374 908c.813 1.625.813 1.625 1 4-1.468 2.246-3.159 4.024-5 6 0-4.246 1.818-6.385 4-10"/></svg>