<?xml version="1.0" encoding="UTF-8"?>
<svg id="Layer_1" data-name="Layer 1" xmlns="http://www.w3.org/2000/svg" viewBox="0 0 32 32">
  <defs>
    <style>
      .cls-1 {
        fill: #ba0002;
      }

      .cls-1, .cls-2, .cls-3 {
        stroke-width: 0px;
      }

      .cls-2 {
        fill: #f80000;
      }

      .cls-3 {
        fill: #7c0000;
      }
    </style>
  </defs>
  <path class="cls-1" d="m19.1,7.35h-5.86c-.2,0-.36.16-.36.36v18.7c0,.21.16.37.36.37h5.86c.2,0,.36-.16.36-.37V7.71c0-.2-.16-.36-.36-.36Zm-2.93,2.01c-.26,0-.47-.21-.47-.47s.21-.46.47-.46.46.21.46.46-.21.47-.46.47Z"/>
  <path class="cls-2" d="m25.8,5.22l-5.85.27c-.2,0-.36.18-.35.38l.81,20.56c0,.21.18.36.38.35l5.85-.27c.2,0,.36-.18.35-.39l-.81-20.56c0-.2-.18-.36-.38-.35Zm-2.83,2.14c-.26.01-.48-.19-.49-.45s.19-.47.45-.48.47.18.48.44-.18.48-.44.49Z"/>
  <path class="cls-3" d="m11.19,8.25l-5.84.39c-.2.01-.35.19-.34.39l1.17,17.4c.01.21.19.36.39.34l5.84-.39c.2-.01.35-.19.34-.39l-1.17-17.4c-.01-.2-.19-.35-.39-.34Zm-2.78,2.2c-.26.02-.48-.18-.5-.44s.18-.48.44-.49.48.18.49.43-.17.48-.43.5Z"/>
</svg>